dataset
version=1
nRows=22
nColumns=39
inDegrees=no
endheader
time	sternoclavicular_r2	sternoclavicular_r3	unrotscap_r3	unrotscap_r2	acromioclavicular_r2	acromioclavicular_r3	acromioclavicular_r1	unrothum_r1	unrothum_r3	unrothum_r2	elv_angle	shoulder_elv	shoulder1_r2	shoulder_rot	elbow_flexion	pro_sup	deviation	flexion	cmc_abduction	cmc_flexion	mp_flexion	ip_flexion	mcp2_flexion	mcp2_abduction	pm2_flexion	md2_flexion	mcp3_flexion	mcp3_abduction	pm3_flexion	md3_flexion	mcp4_flexion	mcp4_abduction	pm4_flexion	md4_flexion	mcp5_flexion	mcp5_abduction	pm5_flexion	md5_flexion
2.550000	-0.041246	-0.502095	0.288680	0.147811	0.112360	0.172796	-0.241519	0.088618	-0.081645	0.120133	0.098101	0.027437	0.146525	0.146525	0.906852	1.419316	0.000000	0.000000	0.000000	0.000000	0.000000	0.000000	0.000000	0.000000	0.000000	0.000000	0.000000	0.000000	0.000000	0.000000	0.000000	0.000000	0.000000	0.000000	0.000000	0.000000	0.000000	0.000000
2.555000	-0.041264	-0.502047	0.288655	0.147818	0.112384	0.172711	-0.241537	0.088557	-0.081671	0.120181	0.098126	0.027437	0.146525	0.146525	0.907047	1.421008	0.000000	0.000000	0.000000	0.000000	0.000000	0.000000	0.000000	0.000000	0.000000	0.000000	0.000000	0.000000	0.000000	0.000000	0.000000	0.000000	0.000000	0.000000	0.000000	0.000000	0.000000	0.000000
2.560000	-0.041281	-0.501996	0.288623	0.147826	0.112410	0.172624	-0.241546	0.088496	-0.081688	0.120231	0.098156	0.027437	0.146525	0.146525	0.907225	1.422723	0.000000	0.000000	0.000000	0.000000	0.000000	0.000000	0.000000	0.000000	0.000000	0.000000	0.000000	0.000000	0.000000	0.000000	0.000000	0.000000	0.000000	0.000000	0.000000	0.000000	0.000000	0.000000
2.565000	-0.041297	-0.501943	0.288583	0.147836	0.112438	0.172538	-0.241547	0.088433	-0.081697	0.120284	0.098189	0.027437	0.146525	0.146525	0.907387	1.424460	0.000000	0.000000	0.000000	0.000000	0.000000	0.000000	0.000000	0.000000	0.000000	0.000000	0.000000	0.000000	0.000000	0.000000	0.000000	0.000000	0.000000	0.000000	0.000000	0.000000	0.000000	0.000000
2.570000	-0.041312	-0.501888	0.288536	0.147847	0.112467	0.172451	-0.241540	0.088368	-0.081699	0.120339	0.098227	0.027437	0.146525	0.146525	0.907534	1.426219	0.000000	0.000000	0.000000	0.000000	0.000000	0.000000	0.000000	0.000000	0.000000	0.000000	0.000000	0.000000	0.000000	0.000000	0.000000	0.000000	0.000000	0.000000	0.000000	0.000000	0.000000	0.000000
2.575000	-0.041326	-0.501831	0.288482	0.147860	0.112497	0.172363	-0.241525	0.088303	-0.081693	0.120395	0.098268	0.027437	0.146525	0.146525	0.907666	1.428002	0.000000	0.000000	0.000000	0.000000	0.000000	0.000000	0.000000	0.000000	0.000000	0.000000	0.000000	0.000000	0.000000	0.000000	0.000000	0.000000	0.000000	0.000000	0.000000	0.000000	0.000000	0.000000
2.580000	-0.041340	-0.501772	0.288421	0.147874	0.112529	0.172276	-0.241502	0.088236	-0.081680	0.120454	0.098313	0.027437	0.146525	0.146525	0.907783	1.429809	0.000000	0.000000	0.000000	0.000000	0.000000	0.000000	0.000000	0.000000	0.000000	0.000000	0.000000	0.000000	0.000000	0.000000	0.000000	0.000000	0.000000	0.000000	0.000000	0.000000	0.000000	0.000000
2.585000	-0.041352	-0.501711	0.288353	0.147889	0.112563	0.172188	-0.241471	0.088168	-0.081660	0.120514	0.098362	0.027437	0.146525	0.146525	0.907887	1.431639	0.000000	0.000000	0.000000	0.000000	0.000000	0.000000	0.000000	0.000000	0.000000	0.000000	0.000000	0.000000	0.000000	0.000000	0.000000	0.000000	0.000000	0.000000	0.000000	0.000000	0.000000	0.000000
2.590000	-0.041364	-0.501649	0.288279	0.147905	0.112597	0.172100	-0.241434	0.088100	-0.081633	0.120577	0.098413	0.027437	0.146525	0.146525	0.907978	1.433494	0.000000	0.000000	0.000000	0.000000	0.000000	0.000000	0.000000	0.000000	0.000000	0.000000	0.000000	0.000000	0.000000	0.000000	0.000000	0.000000	0.000000	0.000000	0.000000	0.000000	0.000000	0.000000
2.595000	-0.041374	-0.501585	0.288200	0.147922	0.112632	0.172012	-0.241390	0.088030	-0.081601	0.120640	0.098468	0.027437	0.146525	0.146525	0.908057	1.435373	0.000000	0.000000	0.000000	0.000000	0.000000	0.000000	0.000000	0.000000	0.000000	0.000000	0.000000	0.000000	0.000000	0.000000	0.000000	0.000000	0.000000	0.000000	0.000000	0.000000	0.000000	0.000000
2.600000	-0.041384	-0.501520	0.288115	0.147940	0.112669	0.171924	-0.241341	0.087959	-0.081562	0.120706	0.098526	0.027437	0.146525	0.146525	0.908124	1.437277	0.000000	0.000000	0.000000	0.000000	0.000000	0.000000	0.000000	0.000000	0.000000	0.000000	0.000000	0.000000	0.000000	0.000000	0.000000	0.000000	0.000000	0.000000	0.000000	0.000000	0.000000	0.000000
2.605000	-0.041394	-0.501454	0.288025	0.147959	0.112707	0.171836	-0.241285	0.087888	-0.081518	0.120772	0.098587	0.027437	0.146525	0.146525	0.908181	1.439207	0.000000	0.000000	0.000000	0.000000	0.000000	0.000000	0.000000	0.000000	0.000000	0.000000	0.000000	0.000000	0.000000	0.000000	0.000000	0.000000	0.000000	0.000000	0.000000	0.000000	0.000000	0.000000
2.610000	-0.041402	-0.501387	0.287931	0.147979	0.112745	0.171748	-0.241224	0.087816	-0.081469	0.120840	0.098650	0.027437	0.146525	0.146525	0.908227	1.441162	0.000000	0.000000	0.000000	0.000000	0.000000	0.000000	0.000000	0.000000	0.000000	0.000000	0.000000	0.000000	0.000000	0.000000	0.000000	0.000000	0.000000	0.000000	0.000000	0.000000	0.000000	0.000000
2.615000	-0.041410	-0.501319	0.287832	0.148000	0.112785	0.171660	-0.241157	0.087743	-0.081415	0.120909	0.098716	0.027437	0.146525	0.146525	0.908263	1.443143	0.000000	0.000000	0.000000	0.000000	0.000000	0.000000	0.000000	0.000000	0.000000	0.000000	0.000000	0.000000	0.000000	0.000000	0.000000	0.000000	0.000000	0.000000	0.000000	0.000000	0.000000	0.000000
2.620000	-0.041418	-0.501250	0.287729	0.148021	0.112825	0.171572	-0.241087	0.087670	-0.081357	0.120979	0.098784	0.027437	0.146525	0.146525	0.908291	1.445150	0.000000	0.000000	0.000000	0.000000	0.000000	0.000000	0.000000	0.000000	0.000000	0.000000	0.000000	0.000000	0.000000	0.000000	0.000000	0.000000	0.000000	0.000000	0.000000	0.000000	0.000000	0.000000
2.625000	-0.041425	-0.501181	0.287622	0.148044	0.112866	0.171485	-0.241012	0.087597	-0.081295	0.121051	0.098854	0.027437	0.146525	0.146525	0.908311	1.447184	0.000000	0.000000	0.000000	0.000000	0.000000	0.000000	0.000000	0.000000	0.000000	0.000000	0.000000	0.000000	0.000000	0.000000	0.000000	0.000000	0.000000	0.000000	0.000000	0.000000	0.000000	0.000000
2.630000	-0.041431	-0.501111	0.287513	0.148067	0.112907	0.171397	-0.240933	0.087523	-0.081229	0.121123	0.098926	0.027437	0.146525	0.146525	0.908324	1.449245	0.000000	0.000000	0.000000	0.000000	0.000000	0.000000	0.000000	0.000000	0.000000	0.000000	0.000000	0.000000	0.000000	0.000000	0.000000	0.000000	0.000000	0.000000	0.000000	0.000000	0.000000	0.000000
2.635000	-0.041438	-0.501041	0.287401	0.148091	0.112950	0.171310	-0.240852	0.087449	-0.081160	0.121196	0.098999	0.027437	0.146525	0.146525	0.908330	1.451334	0.000000	0.000000	0.000000	0.000000	0.000000	0.000000	0.000000	0.000000	0.000000	0.000000	0.000000	0.000000	0.000000	0.000000	0.000000	0.000000	0.000000	0.000000	0.000000	0.000000	0.000000	0.000000
2.640000	-0.041444	-0.500972	0.287286	0.148115	0.112993	0.171224	-0.240767	0.087375	-0.081088	0.121269	0.099074	0.027437	0.146525	0.146525	0.908330	1.453451	0.000000	0.000000	0.000000	0.000000	0.000000	0.000000	0.000000	0.000000	0.000000	0.000000	0.000000	0.000000	0.000000	0.000000	0.000000	0.000000	0.000000	0.000000	0.000000	0.000000	0.000000	0.000000
2.645000	-0.041449	-0.500902	0.287170	0.148141	0.113037	0.171137	-0.240680	0.087301	-0.081014	0.121344	0.099150	0.027437	0.146525	0.146525	0.908325	1.455595	0.000000	0.000000	0.000000	0.000000	0.000000	0.000000	0.000000	0.000000	0.000000	0.000000	0.000000	0.000000	0.000000	0.000000	0.000000	0.000000	0.000000	0.000000	0.000000	0.000000	0.000000	0.000000
2.650000	-0.041455	-0.500833	0.287052	0.148166	0.113081	0.171051	-0.240591	0.087227	-0.080938	0.121419	0.099228	0.027437	0.146525	0.146525	0.908316	1.457769	0.000000	0.000000	0.000000	0.000000	0.000000	0.000000	0.000000	0.000000	0.000000	0.000000	0.000000	0.000000	0.000000	0.000000	0.000000	0.000000	0.000000	0.000000	0.000000	0.000000	0.000000	0.000000
2.655000	-0.041460	-0.500764	0.286933	0.148193	0.113126	0.170966	-0.240501	0.087153	-0.080860	0.121494	0.099306	0.027437	0.146525	0.146525	0.908304	1.459972	0.000000	0.000000	0.000000	0.000000	0.000000	0.000000	0.000000	0.000000	0.000000	0.000000	0.000000	0.000000	0.000000	0.000000	0.000000	0.000000	0.000000	0.000000	0.000000	0.000000	0.000000	0.000000
